<svg width="18" height="17" viewBox="0 0 18 17" fill="none" xmlns="http://www.w3.org/2000/svg">
<path d="M9.21258 4.18129L1 12.3938V16.5L5.10629 16.5L13.3189 8.28752M9.21258 4.18129L12.1574 1.23645L12.1592 1.23471C12.5646 0.829337 12.7676 0.626293 13.0017 0.550243C13.2079 0.483252 13.43 0.483252 13.6362 0.550243C13.8701 0.626239 14.0729 0.829053 14.4777 1.23385L16.2637 3.01985C16.6702 3.42638 16.8736 3.62975 16.9498 3.86414C17.0168 4.07032 17.0167 4.29241 16.9497 4.49859C16.8736 4.73281 16.6706 4.93586 16.2646 5.34182L16.2637 5.34269L13.3189 8.28752M9.21258 4.18129L13.3189 8.28752" stroke="#18120F" stroke-linecap="round" stroke-linejoin="round"/>
</svg>
